<svg xmlns="http://www.w3.org/2000/svg" viewBox="0 0 255.08 72.32"><defs><style>.cls-1,.cls-2{fill:#004386;}.cls-1{fill-rule:evenodd;}</style></defs><title>资源 1</title><g id="图层_2" data-name="图层 2"><g id="图层_1-2" data-name="图层 1"><path class="cls-1" d="M0,72.32H21.76c0-9.23-1.1-13.51,5.12-18.24a10,10,0,0,1,5.63-1.86c.29,0,.59,0,.89,0a11.56,11.56,0,0,1,9.71,5.27L55.86,44l0,28.33H77.63V20.68L56,20.61l-.15,10.65-34.1.12V13.09H.1L0,72.32Z"/><path class="cls-2" d="M121.85,23.73h3.3A20.79,20.79,0,0,1,113,31.35v5.08a24.46,24.46,0,0,0,3.2-.63v7.87a2.27,2.27,0,0,0,2.3,2.29h21.81a2.28,2.28,0,0,0,2.33-2.29V35.84c1,.24,2.12.45,3.2.59V31.35a20.68,20.68,0,0,1-12.17-7.62H137V21.79H121.85v1.94Zm-.94,0V21.19a1.32,1.32,0,0,1,1.32-1.32h14.4A1.32,1.32,0,0,1,138,21.19v2.54h7.59V20.19a2.31,2.31,0,0,0-2.33-2.3H133.4V16.43h10.15v-2H133.4V13.09h-7.93v4.8h-9.85a2.33,2.33,0,0,0-2.33,2.3v3.54Zm8.52,4.21a21.42,21.42,0,0,0,5.6,4.73H123.76a22.81,22.81,0,0,0,5.67-4.73ZM119,28.53l2-4h-5.64l-2,4Zm26.61,0-2-4h-5.63l2,4ZM134.72,42.66A1.32,1.32,0,0,1,133.4,44h-7.93a1.33,1.33,0,0,1-1.33-1.32v-.52h10.58v.52ZM124.14,36a1.33,1.33,0,0,1,1.33-1.32h7.93A1.32,1.32,0,0,1,134.72,36v.52H124.14V36Zm0,2.5h10.58v1.67H124.14V38.48ZM174,42.8A1,1,0,0,1,173,44h-5.71a1,1,0,0,1-.87-1.43l6.27-12.35h-8L158,43.11A1.92,1.92,0,0,0,159.59,46h20.59a2,2,0,0,0,1.88-2.47l-2-6.36h-7.93L174,42.8ZM150,27.59h6.61a79.31,79.31,0,0,1-7.31,13.19h7.45a91.6,91.6,0,0,0,7-13.19h18.47v-2h-17.6c.76-1.88,1.46-3.72,2.05-5.42h-7.17c-.59,1.8-1.25,3.61-2,5.42H150v2Zm7.76-5.39V19a1.32,1.32,0,0,1,1.32-1.32h13.81A1.32,1.32,0,0,1,174.2,19v3.2h7.93V18a2.28,2.28,0,0,0-2.29-2.26H170.1V13.12h-7.94v2.61h-10A2.29,2.29,0,0,0,149.82,18V22.2Zm29.57-5.84h10.5v5.15a25.78,25.78,0,0,1-.59,5.42H185.68v2h11.06c-1.7,6-5.46,11.65-10.78,17.15h9.6a35.44,35.44,0,0,0,7.1-11v8.7a2.35,2.35,0,0,0,2.33,2.3h13.56v-2h-6.64a1.32,1.32,0,0,1-1.32-1.32V28.92h8v-2H205.09a38.25,38.25,0,0,0,.66-7V16.36H217v-2H187.32v2Zm65.57,17-.35,1.33c-.18-1.26-.31-2.51-.45-3.8h.24a2.24,2.24,0,0,0,2.26-2.33V15.66a2.24,2.24,0,0,0-2.26-2.29H240.19A2.26,2.26,0,0,0,238,15.66V43.81a2.28,2.28,0,0,0,2.23,2.29H247v-2h-1.35c-.63,0-.94-.28-.94-1V30.93h1.46a83.89,83.89,0,0,0,2.71,15.17h6c-.59-2.12-1.11-4.24-1.53-6.4l1.74-6.3Zm-24,12.7V15.45h1.18c.73,0,.94.46.84,1.19l-1,10.12h-.48v2h.45c.66,0,.73.42.73.77v9.77c0,.63-.14.77-.73.77h-.45v2h5.25a2.06,2.06,0,0,0,2.12-2.16v-11a2.08,2.08,0,0,0-1.22-1.95L237,15.77a2,2,0,0,0-2-2.33H222.52V46.1Zm19-24.73h-3.2V16.25c0-.73.28-1,1-1h1.29c.69,0,.94.31.94,1v5.05Zm-3.2,7.55V23.39h3.2v4.55c0,.73-.25,1-.94,1Z"/><path class="cls-2" d="M154.77,66.89a2.28,2.28,0,0,1-1.57-.6,2.34,2.34,0,0,1,0-3.28,2.24,2.24,0,0,1,1.57-.6A2.29,2.29,0,0,1,157,64.65a2.1,2.1,0,0,1-.67,1.64,2.29,2.29,0,0,1-1.58.6Z"/><path class="cls-2" d="M251.26,64.56a2.18,2.18,0,0,0-2.29-2,2.26,2.26,0,0,0-1.67.63,2.35,2.35,0,0,0-.64,1.35Zm3.82,2.32h-8.52c0,1.71.82,2.57,2.48,2.57A2.16,2.16,0,0,0,251,68.38h4a5.39,5.39,0,0,1-1.39,2.4,6.28,6.28,0,0,1-4.46,1.54,6.52,6.52,0,0,1-5.33-2.16,6,6,0,0,1-1.34-3.94,6.14,6.14,0,0,1,1.68-4.48A6.25,6.25,0,0,1,248.81,60a5.74,5.74,0,0,1,5.37,2.75,7,7,0,0,1,.9,3.59v.53Zm-15.14-3.21h-2.31v8.19h-4.1V63.67h-1.34V60.34h1.34V56.88h4.1v3.46h2.31v3.33Zm-11.06,8.19h-4.09V60.34h4.09V71.86Zm.23-16a2.25,2.25,0,0,1-2.29,2.29,2.29,2.29,0,0,1-1.62-3.91,2.32,2.32,0,0,1,3.24,0,2.17,2.17,0,0,1,.67,1.62Zm-8.51,16h-4.1V66a3.94,3.94,0,0,0-.34-2,1.68,1.68,0,0,0-1.5-.73,2.12,2.12,0,0,0-1.54.62,2.46,2.46,0,0,0-.56,1.77v6.18h-4.09V60.34h4.09v1.45a5.42,5.42,0,0,1,1.3-1.16,4.86,4.86,0,0,1,2.41-.54,4.43,4.43,0,0,1,3,1,4.3,4.3,0,0,1,1.32,3.43v7.34Zm-16.33,0h-4.09V60.34h4.09V71.86Zm.23-16a2.25,2.25,0,0,1-2.29,2.29,2.17,2.17,0,0,1-1.62-.67,2.29,2.29,0,0,1,3.24-3.24,2.17,2.17,0,0,1,.67,1.62Zm-7.22,7.79h-2.85v8.16h-4.09V63.7h-1.45V60.34h1.45V58.82a5.51,5.51,0,0,1,1.29-3.92,5.09,5.09,0,0,1,3.85-1.71,4.26,4.26,0,0,1,1.8.42v3.55a3.11,3.11,0,0,0-1.42-.46,1.32,1.32,0,0,0-1.21.64,4.11,4.11,0,0,0-.22,1.76v1.24h2.85V63.7Zm-11.49,8.16H181.7V66a3.92,3.92,0,0,0-.35-2,1.68,1.68,0,0,0-1.5-.73,2.12,2.12,0,0,0-1.54.62,2.46,2.46,0,0,0-.56,1.77v6.18h-4.09V60.34h4.09v1.45a5.42,5.42,0,0,1,1.3-1.16,4.88,4.88,0,0,1,2.41-.54,4.43,4.43,0,0,1,3,1,4.3,4.3,0,0,1,1.32,3.43v7.34Zm-16.32,0h-4.1V60.34h4.1V71.86Zm.22-16a2.25,2.25,0,0,1-2.29,2.29,2.17,2.17,0,0,1-1.62-.67A2.29,2.29,0,0,1,169,54.29a2.17,2.17,0,0,1,.67,1.62Z"/><path class="cls-2" d="M145.55,71.86h-4.4v-7h-6.38v7h-4.4v-17h4.4v6.56h6.38V54.9h4.4v17ZM120.9,60.37a2,2,0,0,0-.66-1.53,2.89,2.89,0,0,0-2-.58h-.82V62.5h.82a2.86,2.86,0,0,0,2-.58,2.08,2.08,0,0,0,.66-1.55Zm6.18,11.49h-5.47l-4.2-6.48v6.48H113v-17h6.85a5.06,5.06,0,0,1,5.61,5.22,4.86,4.86,0,0,1-1.33,3.6,4.76,4.76,0,0,1-2.37,1.2l5.31,6.94Z"/><path class="cls-1" d="M77.68,14.59a7.48,7.48,0,0,1,6,5.82h2.64A10.07,10.07,0,0,0,77.68,12v2.64Z"/><path class="cls-2" d="M81.44,16.72a7.21,7.21,0,0,0-3.8-1.93l-.17,0v-3l.23,0a10.26,10.26,0,0,1,5.87,2.83,10.43,10.43,0,0,1,3,5.81l0,.24h-3l0-.17a7.29,7.29,0,0,0-2.08-3.73Z"/><path class="cls-1" d="M92.27,20.41A16,16,0,0,0,77.68,6V8.69A13.33,13.33,0,0,1,89.61,20.41Z"/><path class="cls-2" d="M87.71,10.41a16.19,16.19,0,0,1,4.76,10l0,.23H89.43l0-.19a13.18,13.18,0,0,0-3.85-7.85,13,13,0,0,0-7.9-3.68l-.19,0V5.8l.22,0a16,16,0,0,1,10,4.59Z"/><path class="cls-1" d="M98.06,20.41A21.75,21.75,0,0,0,77.68.22v2.9A18.85,18.85,0,0,1,95.16,20.41Z"/><path class="cls-2" d="M91.79,6.31A22,22,0,0,1,98.26,20.4l0,.22H95l0-.19a18.69,18.69,0,0,0-5.5-11.78,18.44,18.44,0,0,0-11.8-5.32l-.19,0V0h.22a21.79,21.79,0,0,1,14.1,6.3Z"/></g></g></svg>